<svg height="240" viewBox="0 0 80 80" width="240" xmlns="http://www.w3.org/2000/svg"><path d="m6 12v3 3 1.832031a1.0001 1.0001 0 0 0 0 .326172v37.841797h39.849609l-3.849609-3.849609v.849609c0 .552-.448 1-1 1h-2c-.552 0-1-.448-1-1v-3c0-.508.385953-.910609.876953-.974609l-2.027344-2.025391h-10.849609a1 1 0 0 0 -1-1 1 1 0 0 0 -1 1h-16v-28h16a1 1 0 0 0 1 1 1 1 0 0 0 1-1h28a1 1 0 0 0 1 1 1 1 0 0 0 1-1h13 2 1v28h-10.849609l2 2h1.849609c.552 0 1 .448 1 1v1.849609l4.150391 4.150391h3.849609v-37.845703a1.0001 1.0001 0 0 0 0-.3125v-1.841797-3-3h-3-2-4-2-4-2-4-2-4-2-4-2-4-2-4-2-4-2-4-2-4-2zm3 2h2c.56503 0 1 .43497 1 1v3c0 .56503-.43497 1-1 1h-2c-.5650302 0-1-.43497-1-1v-3c0-.56503.4349698-1 1-1zm6 0h2c.56503 0 1 .43497 1 1v3c0 .56503-.43497 1-1 1h-2c-.56503 0-1-.43497-1-1v-3c0-.56503.43497-1 1-1zm6 0h2c.56503 0 1 .43497 1 1v3c0 .56503-.43497 1-1 1h-2c-.56503 0-1-.43497-1-1v-3c0-.56503.43497-1 1-1zm6 0h2c.56503 0 1 .43497 1 1v3c0 .56503-.43497 1-1 1h-2c-.56503 0-1-.43497-1-1v-3c0-.56503.43497-1 1-1zm6 0h2c.56503 0 1 .43497 1 1v3c0 .56503-.43497 1-1 1h-2c-.56503 0-1-.43497-1-1v-3c0-.56503.43497-1 1-1zm6 0h2c.56503 0 1 .43497 1 1v3c0 .56503-.43497 1-1 1h-2c-.56503 0-1-.43497-1-1v-3c0-.56503.43497-1 1-1zm6 0h2c.56503 0 1 .43497 1 1v3c0 .56503-.43497 1-1 1h-2c-.56503 0-1-.43497-1-1v-3c0-.56503.43497-1 1-1zm6 0h2c.56503 0 1 .43497 1 1v3c0 .56503-.43497 1-1 1h-2c-.56503 0-1-.43497-1-1v-3c0-.56503.43497-1 1-1zm6 0h2c.56503 0 1 .43497 1 1v3c0 .56503-.43497 1-1 1h-2c-.56503 0-1-.43497-1-1v-3c0-.56503.43497-1 1-1zm6 0h2c.56503 0 1 .43497 1 1v3c0 .56503-.43497 1-1 1h-2c-.56503 0-1-.43497-1-1v-3c0-.56503.43497-1 1-1zm6 0h2c.56503 0 1 .43497 1 1v3c0 .56503-.43497 1-1 1h-2c-.56503 0-1-.43497-1-1v-3c0-.56503.43497-1 1-1zm-44 10a1 1 0 0 0 -1 1 1 1 0 0 0 1 1 1 1 0 0 0 1-1 1 1 0 0 0 -1-1zm30 0a1 1 0 0 0 -1 1 1 1 0 0 0 1 1 1 1 0 0 0 1-1 1 1 0 0 0 -1-1zm-30 4a1 1 0 0 0 -1 1 1 1 0 0 0 1 1 1 1 0 0 0 1-1 1 1 0 0 0 -1-1zm30 0a1 1 0 0 0 -1 1 1 1 0 0 0 1 1 1 1 0 0 0 1-1 1 1 0 0 0 -1-1zm-30 4a1 1 0 0 0 -1 1 1 1 0 0 0 1 1 1 1 0 0 0 1-1 1 1 0 0 0 -1-1zm30 0a1 1 0 0 0 -1 1 1 1 0 0 0 1 1 1 1 0 0 0 1-1 1 1 0 0 0 -1-1zm-30 4a1 1 0 0 0 -1 1 1 1 0 0 0 1 1 1 1 0 0 0 1-1 1 1 0 0 0 -1-1zm30 0a1 1 0 0 0 -1 1 1 1 0 0 0 1 1 1 1 0 0 0 1-1 1 1 0 0 0 -1-1zm-16.544922 2.455078 3.72461 11.632813.171874.171875 22.248047 22.246093-.001953.001953.707032.707032 4.765624 4.763672.541016.539062c1.967031 1.967031 5.187266 1.967031 7.154297 0l.753906-.753906c1.967031-1.967031 1.967031-5.185313 0-7.152344l-.541015-.541016-5.472657-5.470703-22.417968-22.419921zm-13.455078 1.544922a1 1 0 0 0 -1 1 1 1 0 0 0 1 1 1 1 0 0 0 1-1 1 1 0 0 0 -1-1zm30 0a1 1 0 0 0 -1 1 1 1 0 0 0 1 1 1 1 0 0 0 1-1 1 1 0 0 0 -1-1zm-12.392578 1.884766 5.865234 1.876953c-.001058.005398-.000866.008238-.001953.013672-.08137.406646-.267057.839322-.4375 1.009765s-.605072.356131-1.011719.4375c-.406646.08137-.716797.082032-.716796.082032h-1v1s-.000664.31015-.082032.716796c-.08137.406647-.267057.841276-.4375 1.011719s-.603119.356131-1.009765.4375c-.005434.001087-.008274.000895-.013672.001953l-1.876953-5.865234zm-17.607422 2.115234a1 1 0 0 0 -1 1 1 1 0 0 0 1 1 1 1 0 0 0 1-1 1 1 0 0 0 -1-1zm25.166016 1.085938 20.927734 20.925781-5.080078 5.080078-20.927734-20.925781c.379794-.151819.765856-.371326 1.113281-.71875.641557-.641557.862744-1.42535.984375-2.033204.02271-.113486.008497-.103538.023437-.207031.103493-.01498.09354-.000726.207031-.023437.607856-.121631 1.391647-.342818 2.033204-.984375.347424-.347425.566931-.733487.71875-1.113281zm-41.166016 5.914062h2c.552 0 1 .448 1 1v3c0 .552-.448 1-1 1h-2c-.552 0-1-.448-1-1v-3c0-.552.448-1 1-1zm6 0h2c.552 0 1 .448 1 1v3c0 .552-.448 1-1 1h-2c-.552 0-1-.448-1-1v-3c0-.552.448-1 1-1zm6 0h2c.552 0 1 .448 1 1v3c0 .552-.448 1-1 1h-2c-.552 0-1-.448-1-1v-3c0-.552.448-1 1-1zm6 0h2c.552 0 1 .448 1 1v3c0 .552-.448 1-1 1h-2c-.552 0-1-.448-1-1v-3c0-.552.448-1 1-1zm6 0h2c.552 0 1 .448 1 1v3c0 .552-.448 1-1 1h-2c-.552 0-1-.448-1-1v-3c0-.552.448-1 1-1zm36 0h2c.552 0 1 .448 1 1v3c0 .552-.448 1-1 1h-2c-.552 0-1-.448-1-1v-3c0-.552.448-1 1-1zm3.505859 16.427734 2.644532 2.642578-5.080079 5.080079-2.642578-2.642579zm4.058594 4.056641.541016.541016c1.202969 1.202969 1.202969 3.121249 0 4.324218l-.753907.753907c-1.202967 1.202969-3.123202 1.202969-4.326171 0l-.541016-.539063z"/></svg>